<svg xmlns="http://www.w3.org/2000/svg" viewBox="0 0 320 64" role="img" aria-label="LegalSupportNow">
  <defs>
    <linearGradient id="gold" x1="0" y1="0" x2="1" y2="1">
      <stop offset="0" stop-color="#C8A951" />
      <stop offset="1" stop-color="#B8932D" />
    </linearGradient>
  </defs>
  <g fill="none" fill-rule="evenodd">
    <rect x="0" y="0" width="64" height="64" rx="16" fill="#0B1C2C" />
    <path
      d="M32 14c10 6 18 6 18 6v14c0 14-10 22-18 26C24 56 14 48 14 34V20s8 0 18-6Z"
      stroke="url(#gold)"
      stroke-width="3"
    />
    <path d="M32 22v22" stroke="url(#gold)" stroke-width="3" stroke-linecap="round" />
    <path d="M22 28h20" stroke="url(#gold)" stroke-width="3" stroke-linecap="round" />
    <path
      d="M24 28l-7 8a7 7 0 0 0 14 0l-7-8Zm23 0l-7 8a7 7 0 0 0 14 0l-7-8Z"
      fill="url(#gold)"
      opacity="0.95"
    />
    <g transform="translate(78 10)">
      <text
        x="0"
        y="28"
        font-family="Playfair Display, Georgia, serif"
        font-size="26"
        font-weight="600"
        fill="#0B1C2C"
      >
        LegalSupportNow
      </text>
      <text
        x="0"
        y="48"
        font-family="Inter, system-ui, -apple-system, Segoe UI, Roboto, sans-serif"
        font-size="13"
        font-weight="500"
        fill="#1F2937"
        opacity="0.92"
      >
        Criminal " Civil " Corporate " Family " Property " Cyber
      </text>
      <rect x="0" y="56" width="56" height="2" rx="1" fill="url(#gold)" opacity="0.8" />
    </g>
  </g>
</svg>
