<svg xmlns="http://www.w3.org/2000/svg" viewBox="0 0 64 64" role="img" aria-label="LegalSupportNow">
  <defs>
    <linearGradient id="g" x1="0" y1="0" x2="1" y2="1">
      <stop offset="0" stop-color="#C8A951" />
      <stop offset="1" stop-color="#B8932D" />
    </linearGradient>
  </defs>
  <rect width="64" height="64" rx="16" fill="#0B1C2C" />
  <path
    d="M32 14c10 6 18 6 18 6v14c0 14-10 22-18 26C24 56 14 48 14 34V20s8 0 18-6Z"
    fill="none"
    stroke="url(#g)"
    stroke-width="3"
  />
  <path d="M32 22v22" stroke="url(#g)" stroke-width="3" stroke-linecap="round" />
  <path d="M22 28h20" stroke="url(#g)" stroke-width="3" stroke-linecap="round" />
  <path
    d="M24 28l-7 8a7 7 0 0 0 14 0l-7-8Zm23 0l-7 8a7 7 0 0 0 14 0l-7-8Z"
    fill="url(#g)"
    opacity="0.95"
  />
</svg>