<svg xmlns="http://www.w3.org/2000/svg" viewBox="0 0 1200 630" role="img" aria-label="How Bail Works in Criminal Cases in India">
  <defs>
    <linearGradient id="bg" x1="0" y1="0" x2="1" y2="1">
      <stop offset="0" stop-color="#0B1C2C" stop-opacity="0.95" />
      <stop offset="1" stop-color="#1F2937" stop-opacity="0.95" />
    </linearGradient>
  </defs>
  <rect width="1200" height="630" rx="44" fill="url(#bg)" />
  <circle cx="1030" cy="120" r="160" fill="#C8A951" opacity="0.16" />
  <circle cx="220" cy="560" r="220" fill="#C8A951" opacity="0.10" />
  <g transform="translate(90 110)">
    <rect x="0" y="0" width="160" height="160" rx="36" fill="#0B1C2C" stroke="#C8A951" stroke-opacity="0.4" />
    <path d="M80 38v86" stroke="#C8A951" stroke-width="8" stroke-linecap="round" />
    <path d="M45 62h70" stroke="#C8A951" stroke-width="8" stroke-linecap="round" />
    <path d="M52 62l-24 28a24 24 0 0 0 48 0L52 62Zm96 0l-24 28a24 24 0 0 0 48 0l-24-28Z" fill="#C8A951" opacity="0.95" />
  </g>
  <text x="90" y="355" font-family="Playfair Display, Georgia, serif" font-size="64" font-weight="700" fill="#FFFFFF">
    How Bail Works in India
  </text>
  <text x="90" y="418" font-family="Inter, system-ui, -apple-system, Segoe UI, Roboto, sans-serif" font-size="28" font-weight="500" fill="#FFFFFF" opacity="0.86">
    A practical, evidence-first guide for urgent criminal matters
  </text>
  <rect x="90" y="458" width="260" height="6" rx="3" fill="#C8A951" opacity="0.85" />
</svg>
