<svg xmlns="http://www.w3.org/2000/svg" viewBox="0 0 1200 630" role="img" aria-label="Mutual Consent Divorce Timeline">
  <defs>
    <linearGradient id="bg" x1="0" y1="0" x2="1" y2="1">
      <stop offset="0" stop-color="#0B1C2C" stop-opacity="0.96" />
      <stop offset="1" stop-color="#1F2937" stop-opacity="0.96" />
    </linearGradient>
  </defs>
  <rect width="1200" height="630" rx="44" fill="url(#bg)" />
  <circle cx="1030" cy="520" r="220" fill="#C8A951" opacity="0.11" />
  <circle cx="230" cy="130" r="170" fill="#C8A951" opacity="0.10" />
  <g transform="translate(90 110)">
    <rect x="0" y="0" width="160" height="160" rx="36" fill="#0B1C2C" stroke="#C8A951" stroke-opacity="0.35" />
    <path d="M56 62c10-10 24-16 40-16s30 6 40 16l16 16-16 16c-10 10-24 16-40 16s-30-6-40-16L40 78l16-16Z" fill="#C8A951" opacity="0.92" />
    <path d="M68 78h56" stroke="#0B1C2C" stroke-width="8" stroke-linecap="round" opacity="0.6" />
  </g>
  <text x="90" y="355" font-family="Playfair Display, Georgia, serif" font-size="64" font-weight="700" fill="#FFFFFF">
    Mutual Consent Divorce
  </text>
  <text x="90" y="418" font-family="Inter, system-ui, -apple-system, Segoe UI, Roboto, sans-serif" font-size="28" font-weight="500" fill="#FFFFFF" opacity="0.86">
    Timeline, documents, and common mistakes
  </text>
  <rect x="90" y="458" width="260" height="6" rx="3" fill="#C8A951" opacity="0.85" />
</svg>
